<svg xmlns:dc="http://purl.org/dc/elements/1.1/" xmlns:cc="http://creativecommons.org/ns#" xmlns:rdf="http://www.w3.org/1999/02/22-rdf-syntax-ns#" xmlns:svg="http://www.w3.org/2000/svg" xmlns="http://www.w3.org/2000/svg" xmlns:sodipodi="http://sodipodi.sourceforge.net/DTD/sodipodi-0.dtd" xmlns:inkscape="http://www.inkscape.org/namespaces/inkscape" version="1.1" id="Layer_1" x="0px" y="0px" width="900" height="303.612" viewBox="50 350 900 303.612" enable-background="new 0 0 1000 885.989" xml:space="preserve" inkscape:version="0.92.2 (5c3e80d, 2017-08-06)" sodipodi:docname="AMEX.svg"><metadata id="metadata13"><rdf:RDF><cc:Work rdf:about=""><dc:format>image/svg+xml</dc:format><dc:type rdf:resource="http://purl.org/dc/dcmitype/StillImage"/><dc:title/></cc:Work></rdf:RDF></metadata><defs id="defs11"/><sodipodi:namedview pagecolor="#ffffff" bordercolor="#666666" borderopacity="1" objecttolerance="10" gridtolerance="10" guidetolerance="10" inkscape:pageopacity="0" inkscape:pageshadow="2" inkscape:window-width="1366" inkscape:window-height="705" id="namedview9" showgrid="false" inkscape:zoom="0.53273798" inkscape:cx="604.99977" inkscape:cy="509.31753" inkscape:window-x="-8" inkscape:window-y="-8" inkscape:window-maximized="1" inkscape:current-layer="Layer_1"/><polyline points="994.762,0 116.251,0 116.251,881.684 994.762,881.684 " id="polyline3" transform="matrix(1.1382897,0,0,1.1382897,-132.32731,1.8949219e-4)" style="fill: transparent;"/><path d="m 219.20613,565.52754 -12.55305,29.36332 H 94.128588 L 182.93112,408.72358 h 212.09865 l 21.40782,41.11503 20.00088,-41.11503 h 75.34454 37.97675 172.63074 l 24.44136,25.55802 26.25009,-25.55802 h 132.7906 l -94.27998,92.8685 90.21173,93.29878 H 773.29481 l -28.74978,-27.4214 -28.51188,27.4214 H 549.75976 511.78301 257.31835 l -13.8029,-29.36332 m 0.0785,1.9681 h -24.4675 z M 515.39935,435.31858 H 459.54803 L 417.52807,524.41252 372.3152,435.31858 H 316.46388 V 564.30615 L 258.75259,435.31858 H 206.3594 l -61.69986,132.97728 h 37.76504 l 12.5007,-30.31948 H 266.732 l 14.36294,30.31948 h 69.41291 V 460.05134 l 49.20143,108.24452 h 32.44695 l 48.93621,-106.38228 v 106.38228 h 34.30805 V 435.31858 Z m 230.58106,43.08427 -39.8925,-43.08427 H 545.98292 v 132.97728 h 154.78463 l 43.8822,-43.61698 44.14857,43.61698 h 41.22316 l -63.03165,-67.28658 64.89275,-65.68956 h -43.08426 z m -84.30742,63.29687 h -81.38088 v -29.25404 h 81.38088 v -26.59614 h -81.38088 v -23.93596 h 81.38088 v -22.60643 l 60.37033,60.37033 -60.37033,60.63783 z M 231.62715,457.1248 255.03152,511.11388 H 206.3594 Z" id="path7" inkscape:connector-curvature="0" style="fill: #0a7ec2;stroke-width:1.13828969;"/></svg>